<?xml version="1.0" standalone="no"?>
<!DOCTYPE svg PUBLIC "-//W3C//DTD SVG 20010904//EN"
 "http://www.w3.org/TR/2001/REC-SVG-20010904/DTD/svg10.dtd">
<svg version="1.0" xmlns="http://www.w3.org/2000/svg"
 width="600.000000pt" height="600.000000pt" viewBox="0 0 600.000000 600.000000"
 preserveAspectRatio="xMidYMid meet">
<metadata>
Created by potrace 1.14, written by Peter Selinger 2001-2017
</metadata>
<g transform="translate(0.000000,600.000000) scale(0.100000,-0.100000)"
fill="#000000" stroke="none">
<path d="M4327 5514 c-4 -4 -97 -8 -206 -10 -193 -2 -201 -2 -253 -28 -30 -15
-63 -28 -74 -30 -95 -18 -180 -50 -269 -99 -38 -22 -99 -55 -135 -75 -61 -33
-126 -79 -159 -111 -8 -7 -34 -21 -57 -31 -33 -15 -48 -29 -67 -68 -13 -27
-43 -67 -66 -90 -22 -22 -41 -47 -41 -56 0 -8 -9 -20 -20 -26 -25 -13 -48 0
-79 46 -13 18 -51 62 -86 96 -149 150 -225 210 -315 249 -41 18 -87 41 -103
52 -15 10 -39 20 -55 22 -15 2 -27 4 -27 5 0 1 -12 3 -26 5 -15 2 -44 12 -66
23 -21 11 -52 22 -68 25 -17 3 -50 13 -75 22 -25 9 -83 22 -130 29 -47 8 -96
17 -110 20 -47 12 -154 18 -390 20 -227 2 -237 1 -294 -22 -32 -13 -73 -25
-90 -27 -53 -5 -88 -17 -153 -52 -35 -19 -63 -32 -63 -30 0 3 -27 -5 -59 -16
-103 -38 -398 -305 -476 -431 -29 -47 -111 -136 -125 -136 -16 0 -29 -53 -24
-94 5 -36 1 -59 -24 -118 -16 -40 -33 -89 -38 -108 -4 -19 -8 -37 -9 -40 -1
-3 -9 -22 -17 -42 -15 -34 -27 -91 -34 -158 -1 -14 -3 -25 -4 -25 -1 0 -3 -18
-5 -40 -3 -42 -10 -82 -21 -125 -4 -14 -8 -173 -10 -353 -3 -274 -1 -334 11
-364 8 -20 17 -46 19 -59 3 -12 25 -84 51 -159 30 -86 47 -153 47 -182 0 -26
7 -61 16 -78 9 -16 17 -36 18 -44 2 -7 11 -23 22 -35 10 -11 31 -34 46 -51 14
-16 29 -41 33 -55 6 -25 17 -45 59 -110 12 -19 33 -54 46 -76 12 -23 43 -65
67 -94 73 -85 80 -110 80 -285 0 -38 1 -83 1 -100 0 -16 2 -92 4 -167 1 -76 4
-139 7 -141 58 -43 106 -54 249 -62 113 -5 216 -12 295 -19 70 -7 126 -26 178
-63 53 -37 55 -39 97 -75 14 -11 67 -52 118 -90 51 -38 102 -79 115 -91 12
-12 34 -30 47 -40 229 -163 376 -260 475 -312 50 -26 101 -55 115 -65 35 -24
87 -49 138 -66 24 -9 88 -42 141 -73 53 -32 107 -62 119 -65 12 -4 52 -25 89
-46 36 -22 78 -42 93 -45 15 -3 46 -26 68 -49 44 -47 74 -53 137 -27 17 7 47
10 70 7 26 -4 49 -1 65 9 40 23 63 33 90 39 14 3 39 17 55 32 17 14 58 39 91
55 34 15 79 44 99 64 21 19 42 35 46 35 5 0 9 4 9 8 0 4 22 9 50 9 44 2 59 9
132 64 46 34 90 64 98 67 8 3 35 22 60 42 44 36 196 139 340 230 83 52 93 60
158 119 26 24 72 60 102 80 30 20 61 42 69 49 7 7 39 29 70 49 31 19 76 54
101 78 63 58 88 72 140 79 55 6 83 12 124 25 36 12 113 19 290 27 152 6 183
18 201 73 4 13 9 138 11 279 2 142 6 271 8 288 4 38 20 67 66 124 20 25 49 68
65 95 15 28 44 73 65 100 20 28 43 66 50 85 8 19 29 67 48 105 43 90 72 171
72 205 0 26 62 226 81 262 5 10 12 63 15 120 4 73 11 113 25 141 29 55 34 118
16 175 -9 26 -18 67 -22 92 -3 25 -8 59 -11 75 -5 39 -11 85 -19 160 -4 33 -8
71 -11 85 -2 14 -7 41 -9 60 -8 48 -25 132 -32 150 -3 8 -7 20 -8 25 -2 6 -26
80 -55 165 -29 85 -53 160 -55 165 -15 73 -51 147 -85 175 -28 23 -52 77 -66
144 -2 11 -10 24 -19 28 -16 9 -163 125 -181 143 -6 6 -39 35 -74 65 -34 30
-68 60 -74 65 -19 18 -148 91 -208 118 -119 53 -183 65 -390 72 -73 2 -178 7
-233 10 -55 4 -103 3 -108 -1z"/>
</g>
</svg>
